<svg xmlns="http://www.w3.org/2000/svg" width="34" height="34" viewBox="0 0 34 34">
    <g id="그룹_58159" data-name="그룹 58159" transform="translate(-469 -679)">
        <circle id="타원_1540" cx="17" cy="17" r="17" fill="#8fa6c9" data-name="타원 1540" transform="translate(469 679)"/>
        <path id="패스_6173" fill="#fff" d="M12.859 4.778L8.908 8.722a.485.485 0 0 1-.686 0l-.451-.449a.485.485 0 0 1 0-.685l.012-.012 2.447-2.331h-8.6v7.771a.486.486 0 0 1-.485.487H.487A.485.485 0 0 1 0 13.019V4.108a.486.486 0 0 1 .485-.488h9.74L7.777 1.289A.489.489 0 0 1 7.762.6l.007-.008.451-.449a.486.486 0 0 1 .687 0l3.949 3.948a.485.485 0 0 1 .003.687z" data-name="패스 6173" transform="rotate(90 -98.748 591.252)"/>
    </g>
</svg>
